<?xml version="1.0" standalone="no"?>
<!DOCTYPE svg PUBLIC "-//W3C//DTD SVG 20010904//EN"
 "http://www.w3.org/TR/2001/REC-SVG-20010904/DTD/svg10.dtd">
<svg version="1.0" xmlns="http://www.w3.org/2000/svg"
 width="1280.000000pt" height="853.000000pt" viewBox="0 0 1280.000000 853.000000"
 preserveAspectRatio="xMidYMid meet">
<metadata>
Created by potrace 1.15, written by Peter Selinger 2001-2017
</metadata>
<g transform="translate(0.000000,853.000000) scale(0.100000,-0.100000)"
fill="#000000" stroke="none">
<path d="M3262 8393 c-223 -569 -276 -1113 -147 -1501 129 -387 422 -663 855
-805 159 -53 175 -54 101 -10 -177 105 -354 353 -480 670 -59 150 -192 568
-191 599 1 5 20 -43 44 -106 136 -362 282 -639 412 -780 60 -64 153 -119 165
-98 18 33 40 234 40 365 -1 371 -91 620 -429 1185 -148 247 -244 429 -282 536
-13 34 -26 65 -31 67 -4 3 -30 -52 -57 -122z"/>
<path d="M4932 7930 c-105 -28 -203 -83 -287 -162 -203 -189 -326 -479 -392
-923 -26 -173 -26 -729 0 -930 48 -368 127 -687 233 -938 l32 -77 -46 33
c-1231 894 -2579 1334 -4214 1374 -142 3 -258 3 -258 -1 0 -16 61 -96 88 -114
24 -17 53 -20 282 -25 1394 -35 2589 -464 3829 -1375 391 -288 813 -644 1311
-1110 144 -135 400 -383 400 -387 0 -1 -30 6 -67 16 -222 62 -531 117 -838
150 -264 29 -794 31 -1040 5 -849 -90 -1474 -336 -1879 -741 -207 -206 -354
-475 -415 -757 -42 -194 -50 -435 -20 -627 38 -243 224 -507 432 -611 69 -35
88 -40 146 -40 76 0 105 12 131 55 l19 30 -97 0 c-85 0 -104 3 -152 27 -162
80 -316 276 -380 483 -18 59 -21 94 -21 230 0 294 46 500 164 729 238 465 741
775 1492 920 672 129 1551 107 2395 -60 168 -33 429 -101 451 -116 9 -7 147
-139 306 -292 762 -739 1285 -1190 1806 -1560 1275 -905 2571 -1259 4036
-1101 73 8 136 17 139 20 11 11 281 519 278 522 -2 2 -71 -5 -152 -16 -642
-87 -1306 -100 -1854 -35 -543 64 -1080 208 -1550 414 -110 48 -428 206 -448
222 -10 8 1 20 48 50 79 52 141 124 194 228 112 219 157 419 231 1040 48 405
62 507 64 455 2 -77 -20 -726 -29 -850 -37 -480 -135 -814 -272 -930 -17 -14
-29 -27 -27 -29 10 -10 229 72 344 128 597 293 770 775 584 1629 -40 181 -112
431 -254 878 -128 403 -202 654 -241 817 -14 59 -28 116 -31 126 -3 13 -19
-21 -44 -98 -72 -220 -201 -459 -467 -865 -414 -633 -551 -908 -623 -1251 -28
-136 -31 -385 -5 -500 54 -241 141 -425 301 -635 75 -98 83 -111 64 -100 -393
241 -761 516 -1134 849 -119 106 -530 494 -597 563 l-46 48 -26 160 c-62 400
-86 674 -86 1008 0 484 62 832 198 1118 85 178 225 350 371 458 97 71 115 78
241 90 226 23 481 74 550 111 18 9 532 102 950 170 252 42 257 42 435 36 99
-3 254 -15 345 -26 91 -11 181 -20 200 -20 l34 0 -38 39 c-48 49 -132 95 -211
114 -33 9 -140 27 -238 42 -98 14 -204 32 -235 39 -65 15 -72 13 93 37 78 11
135 31 135 48 0 28 -80 63 -245 106 -249 65 -500 163 -669 261 -177 102 -298
192 -515 382 -294 259 -402 338 -566 417 -88 42 -283 107 -357 120 -32 5 -41
14 -83 81 -157 252 -423 380 -660 319 -159 -42 -308 -183 -413 -391 -26 -52
-36 -62 -69 -72 -87 -26 -292 -197 -267 -222 14 -14 197 -88 251 -102 40 -10
47 -16 72 -67 16 -31 55 -92 87 -136 l58 -80 2 -105 c2 -120 19 -194 69 -305
154 -337 481 -616 873 -745 l114 -37 -64 -45 c-82 -59 -212 -195 -275 -289
-250 -370 -374 -928 -373 -1679 1 -140 5 -316 10 -390 4 -74 7 -136 6 -137 -1
-2 -202 198 -447 443 -441 442 -702 694 -956 918 -101 90 -142 134 -176 189
-308 503 -498 1039 -562 1590 -21 174 -20 488 0 658 82 671 421 1106 811 1040
75 -12 76 -12 115 13 21 15 39 30 39 35 0 18 -96 33 -235 37 -117 3 -152 1
-213 -16z"/>
<path d="M2215 5539 c-126 -18 -273 -76 -384 -151 -78 -53 -203 -188 -278
-300 -69 -102 -124 -210 -316 -610 -47 -98 -108 -215 -135 -260 -66 -109 -164
-222 -240 -278 -65 -46 -72 -57 -28 -41 14 6 135 31 269 56 532 100 803 164
1067 252 605 201 966 466 1128 829 42 94 73 215 59 232 -40 51 -380 172 -483
172 -43 0 -241 -93 -386 -182 -223 -137 -446 -333 -587 -515 -35 -46 -66 -83
-67 -83 -7 0 38 105 67 160 106 199 345 418 610 559 102 55 245 111 281 111
30 0 16 10 -29 21 -147 35 -406 48 -548 28z"/>
<path d="M5350 5267 c0 -4 22 -37 49 -74 27 -38 99 -149 162 -248 320 -511
530 -687 845 -712 99 -7 98 -8 58 95 -92 231 -265 442 -425 517 -62 28 -52 31
44 10 170 -36 293 -150 425 -395 39 -71 41 -73 51 -48 22 57 34 153 28 228 -9
139 -94 275 -229 368 -161 111 -441 203 -728 241 -107 14 -280 25 -280 18z"/>
<path d="M7400 4750 c-182 -358 -276 -613 -336 -914 -32 -162 -43 -421 -24
-573 56 -451 306 -808 741 -1059 44 -26 82 -44 84 -42 5 5 -72 246 -164 507
-81 233 -134 417 -155 543 -16 90 -33 307 -23 298 2 -3 14 -55 26 -117 42
-220 124 -449 305 -853 54 -118 140 -315 193 -438 53 -122 97 -221 99 -220 1
2 -9 50 -22 108 -56 249 -68 522 -31 695 36 162 112 326 227 486 l68 95 -9 50
c-43 232 -165 426 -539 859 -204 236 -318 422 -363 591 l-24 89 -53 -105z"/>
<path d="M4178 3120 c-325 -68 -561 -211 -703 -425 -65 -98 -106 -191 -174
-400 -63 -191 -107 -280 -169 -336 -25 -23 -37 -39 -26 -34 10 4 179 60 374
125 399 132 482 164 590 222 282 153 439 369 514 709 14 64 26 121 26 128 0
16 -95 14 -181 -4 -93 -20 -197 -70 -273 -132 -33 -26 -132 -126 -219 -221
-88 -95 -162 -171 -164 -168 -7 7 46 105 97 181 70 103 170 197 300 283 63 41
119 79 125 84 14 12 -19 9 -117 -12z"/>
<path d="M6645 1750 c-210 -18 -408 -58 -935 -190 -368 -92 -552 -129 -705
-140 -110 -8 -273 2 -320 20 -18 7 -25 6 -25 -2 0 -19 145 -281 222 -402 337
-529 726 -833 1173 -918 110 -21 359 -15 481 10 316 67 638 234 961 497 120
98 426 402 421 418 -6 19 -156 65 -286 89 -97 18 -157 21 -357 22 -141 1 -285
-5 -350 -12 -60 -7 -236 -29 -390 -48 -380 -46 -380 -46 -375 -40 9 8 430 114
560 139 372 75 664 93 1003 64 75 -7 137 -9 137 -5 0 4 -27 40 -59 81 -170
211 -416 353 -696 402 -111 19 -327 26 -460 15z"/>
</g>
</svg>
